# xmcd
# 
# Track frame offsets:
#     150
#     12369
#     25463
#     38227
#     48377
#     59041
#     72112
#     80459
#     90257
#     101564
#     109654
#     118946
#     128475
#     140680
#     152697
#     164972
#     179228
#     194123
#     206730
#     222204
#     236368
#     242557
#     251820
#     261108
# 
# Disc length: 3684
# 
# Revision: 1
# Processed by: cddbd v1.5.2PL0 Copyright (c) Steve Scherf et al.
# Submitted via: fre:ac v1.0.31
# 
DISCID=690e6218
DTITLE=Christmas - Chet Atkins The Complete RCA Victor and Columbua Christmas Recordings Disc 2
DYEAR=1961
DGENRE=Christmas
TTITLE0=Greensleeves [1961 ver.]
TTITLE1=Bells of St. Mary's [1973 ver.]
TTITLE2=WInter Wonderland [1976 ver.]
TTITLE3=Jolly Old St. Nicholas
TTITLE4=White Christmas [1976 ver.]
TTITLE5=Blue Christmas  [1976 ver.]
TTITLE6=Jingle Bells [1976 ver.]
TTITLE7=Silver Bells [1976 ver.]
TTITLE8=Little Drummer Boy [1976 ver.]
TTITLE9=The First Noel [1976 ver.]
TTITLE10=Silent Night [1976 ver.]
TTITLE11=Jingle Bell Rock [1983 ver.]
TTITLE12=White Christmas [1983 ver.]
TTITLE13=Let It Snow, Let It Snow, Let It Snow
TTITLE14=Winter Wonderland [1983 ver.]
TTITLE15=The Christmas Song
TTITLE16=I'll Be Home For Christmas
TTITLE17=East Tennessee Christmas
TTITLE18=Do You Hear What I Hear?
TTITLE19=Little Drummer Boy [1983 ver.]
TTITLE20=God Rest Ye Merry, Gentlemen [1983 ver.]
TTITLE21=Silent Night [1983 ver.]
TTITLE22=Away in a Manger
TTITLE23=Ava Maria [1983 ver.]
EXTD=
EXTT0=
EXTT1=
EXTT2=
EXTT3=
EXTT4=
EXTT5=
EXTT6=
EXTT7=
EXTT8=
EXTT9=
EXTT10=
EXTT11=
EXTT12=
EXTT13=
EXTT14=
EXTT15=
EXTT16=
EXTT17=
EXTT18=
EXTT19=
EXTT20=
EXTT21=
EXTT22=
EXTT23=
PLAYORDER=
